<svg xmlns="http://www.w3.org/2000/svg" xmlns:xlink="http://www.w3.org/1999/xlink" width="500" zoomAndPan="magnify" viewBox="0 0 375 374.999991" height="500" preserveAspectRatio="xMidYMid meet" version="1.0"><defs><g/><clipPath id="18bc7a1ec4"><rect x="0" width="300" y="0" height="362"/></clipPath><clipPath id="ad4c685243"><rect x="0" width="283" y="0" height="328"/></clipPath></defs><g transform="matrix(1, 0, 0, 1, 12, 13)"><g clip-path="url(#18bc7a1ec4)"><g fill="#000000" fill-opacity="1"><g transform="translate(6.849445, 292.58171)"><g><path d="M 176.625 -142.046875 C 191.6875 -142.046875 204.367188 -146.191406 214.671875 -154.484375 C 224.972656 -162.785156 230.125 -174.78125 230.125 -190.46875 C 230.125 -206.144531 224.972656 -218.132812 214.671875 -226.4375 C 204.367188 -234.738281 191.6875 -238.890625 176.625 -238.890625 L 95 -238.890625 L 95 -142.046875 Z M 41.5 -289.609375 L 181.234375 -289.609375 C 195.078125 -289.609375 208.222656 -287.378906 220.671875 -282.921875 C 233.117188 -278.460938 243.953125 -272.003906 253.171875 -263.546875 C 262.398438 -255.097656 269.78125 -244.722656 275.3125 -232.421875 C 280.851562 -220.128906 283.625 -206.144531 283.625 -190.46875 C 283.625 -174.78125 280.851562 -160.785156 275.3125 -148.484375 C 269.78125 -136.191406 262.398438 -125.816406 253.171875 -117.359375 C 243.953125 -108.910156 233.117188 -102.457031 220.671875 -98 C 208.222656 -93.539062 195.078125 -91.3125 181.234375 -91.3125 L 95 -91.3125 L 95 0 L 41.5 0 L 41.5 -91.3125 L 6.921875 -91.3125 L 6.921875 -142.046875 L 41.5 -142.046875 Z M 41.5 -289.609375 "/></g></g></g></g></g><g transform="matrix(1, 0, 0, 1, 22, 47)"><g clip-path="url(#ad4c685243)"><g fill="#000000" fill-opacity="1"><g transform="translate(2.014956, 290.21996)"><g><path d="M 89.15625 -287.109375 L 89.15625 -50.28125 L 202.0625 -50.28125 L 202.0625 -118.859375 L 255.109375 -118.859375 L 255.109375 0 L 36.109375 0 L 36.109375 -287.109375 Z M 89.15625 -287.109375 "/></g></g></g></g></g></svg>